<svg width="16" height="17" viewBox="0 0 16 17" fill="none" xmlns="http://www.w3.org/2000/svg">
<path fill-rule="evenodd" clip-rule="evenodd" d="M11.2508 1.56265H4.74906C2.48331 1.56265 1.06281 3.1669 1.06281 5.43715V11.5632C1.06281 13.8334 2.47656 15.4377 4.74906 15.4377H11.2501C13.5233 15.4377 14.9378 13.8334 14.9378 11.5632V5.43715C14.9378 3.1669 13.5233 1.56265 11.2508 1.56265Z" stroke="#131313" stroke-width="1.5" stroke-linecap="round" stroke-linejoin="round"/>
<path fill-rule="evenodd" clip-rule="evenodd" d="M7.01925 8.50016C7.01925 9.26666 6.3975 9.88916 5.63025 9.88916C4.86375 9.88916 4.242 9.26666 4.242 8.50016C4.242 7.73366 4.86375 7.11116 5.63025 7.11116C6.3975 7.11116 7.01925 7.73366 7.01925 8.50016Z" stroke="#131313" stroke-width="1.5" stroke-linecap="round" stroke-linejoin="round"/>
<path d="M7.01923 8.50015H11.7577V9.88915" stroke="#131313" stroke-width="1.5" stroke-linecap="round" stroke-linejoin="round"/>
<path d="M9.63623 9.88877V8.49977" stroke="#131313" stroke-width="1.5" stroke-linecap="round" stroke-linejoin="round"/>
</svg>
