<svg width="20" height="21" viewBox="0 0 20 21" fill="none" xmlns="http://www.w3.org/2000/svg">
<mask id="mask0_1584_21351" style="mask-type:alpha" maskUnits="userSpaceOnUse" x="0" y="0" width="20" height="21">
<path fill-rule="evenodd" clip-rule="evenodd" d="M19.7674 8.68182H10.2326V12.5455H15.7209C15.2093 15 13.0698 16.4091 10.2326 16.4091C6.88372 16.4091 4.18605 13.7727 4.18605 10.5C4.18605 7.22727 6.88372 4.59091 10.2326 4.59091C11.6744 4.59091 12.9767 5.09091 14 5.90909L16.9767 3C15.1628 1.45455 12.8372 0.5 10.2326 0.5C4.55814 0.5 0 4.95455 0 10.5C0 16.0455 4.55814 20.5 10.2326 20.5C15.3488 20.5 20 16.8636 20 10.5C20 9.90909 19.907 9.27273 19.7674 8.68182Z" fill="white"/>
</mask>
<g mask="url(#mask0_1584_21351)">
<path d="M-0.930176 16.409V4.59082L6.9768 10.4999L-0.930176 16.409Z" fill="#FBBC05"/>
</g>
<mask id="mask1_1584_21351" style="mask-type:alpha" maskUnits="userSpaceOnUse" x="0" y="0" width="20" height="21">
<path fill-rule="evenodd" clip-rule="evenodd" d="M19.7674 8.68182H10.2326V12.5455H15.7209C15.2093 15 13.0698 16.4091 10.2326 16.4091C6.88372 16.4091 4.18605 13.7727 4.18605 10.5C4.18605 7.22727 6.88372 4.59091 10.2326 4.59091C11.6744 4.59091 12.9767 5.09091 14 5.90909L16.9767 3C15.1628 1.45455 12.8372 0.5 10.2326 0.5C4.55814 0.5 0 4.95455 0 10.5C0 16.0455 4.55814 20.5 10.2326 20.5C15.3488 20.5 20 16.8636 20 10.5C20 9.90909 19.907 9.27273 19.7674 8.68182Z" fill="white"/>
</mask>
<g mask="url(#mask1_1584_21351)">
<path d="M-0.930176 4.59082L6.9768 10.4999L10.2326 7.72718L21.3954 5.95446V-0.40918H-0.930176V4.59082Z" fill="#EA4335"/>
</g>
<mask id="mask2_1584_21351" style="mask-type:alpha" maskUnits="userSpaceOnUse" x="0" y="0" width="20" height="21">
<path fill-rule="evenodd" clip-rule="evenodd" d="M19.7674 8.68182H10.2326V12.5455H15.7209C15.2093 15 13.0698 16.4091 10.2326 16.4091C6.88372 16.4091 4.18605 13.7727 4.18605 10.5C4.18605 7.22727 6.88372 4.59091 10.2326 4.59091C11.6744 4.59091 12.9767 5.09091 14 5.90909L16.9767 3C15.1628 1.45455 12.8372 0.5 10.2326 0.5C4.55814 0.5 0 4.95455 0 10.5C0 16.0455 4.55814 20.5 10.2326 20.5C15.3488 20.5 20 16.8636 20 10.5C20 9.90909 19.907 9.27273 19.7674 8.68182Z" fill="white"/>
</mask>
<g mask="url(#mask2_1584_21351)">
<path d="M-0.930176 16.409L13.0233 5.95446L16.6977 6.409L21.3954 -0.40918V21.409H-0.930176V16.409Z" fill="#34A853"/>
</g>
<mask id="mask3_1584_21351" style="mask-type:alpha" maskUnits="userSpaceOnUse" x="0" y="0" width="20" height="21">
<path fill-rule="evenodd" clip-rule="evenodd" d="M19.7674 8.68182H10.2326V12.5455H15.7209C15.2093 15 13.0698 16.4091 10.2326 16.4091C6.88372 16.4091 4.18605 13.7727 4.18605 10.5C4.18605 7.22727 6.88372 4.59091 10.2326 4.59091C11.6744 4.59091 12.9767 5.09091 14 5.90909L16.9767 3C15.1628 1.45455 12.8372 0.5 10.2326 0.5C4.55814 0.5 0 4.95455 0 10.5C0 16.0455 4.55814 20.5 10.2326 20.5C15.3488 20.5 20 16.8636 20 10.5C20 9.90909 19.907 9.27273 19.7674 8.68182Z" fill="white"/>
</mask>
<g mask="url(#mask3_1584_21351)">
<path d="M21.3953 21.409L6.97668 10.4999L5.11621 9.13627L21.3953 4.59082V21.409Z" fill="#4285F4"/>
</g>
</svg>
