<svg width="20" height="17" viewBox="0 0 20 17" fill="none" xmlns="http://www.w3.org/2000/svg">
<path d="M20 2.39415C19.2563 2.71538 18.4637 2.92831 17.6375 3.03169C18.4875 2.532 19.1363 1.74677 19.4412 0.800308C18.6488 1.26554 17.7738 1.59415 16.8412 1.77754C16.0887 0.988616 15.0162 0.5 13.8462 0.5C11.5763 0.5 9.74875 2.31415 9.74875 4.53815C9.74875 4.85815 9.77625 5.16585 9.84375 5.45877C6.435 5.29508 3.41875 3.68646 1.3925 1.236C1.03875 1.84031 0.83125 2.532 0.83125 3.27662C0.83125 4.67477 1.5625 5.91415 2.6525 6.63169C1.99375 6.61938 1.3475 6.43108 0.8 6.13446C0.8 6.14677 0.8 6.16277 0.8 6.17877C0.8 8.14062 2.22125 9.77015 4.085 10.1455C3.75125 10.2354 3.3875 10.2785 3.01 10.2785C2.7475 10.2785 2.4825 10.2637 2.23375 10.2095C2.765 11.8083 4.2725 12.9837 6.065 13.0218C4.67 14.0963 2.89875 14.7437 0.98125 14.7437C0.645 14.7437 0.3225 14.7289 0 14.6883C1.81625 15.8415 3.96875 16.5 6.29 16.5C13.835 16.5 17.96 10.3462 17.96 5.012C17.96 4.83354 17.9538 4.66123 17.945 4.49015C18.7588 3.92154 19.4425 3.21138 20 2.39415Z" fill="#01AEEF"/>
</svg>
